# This file uses centimeters as units for non-parametric coordinates.

mtllib Brazier.mtl
g default
v 0.500000 2.196489 -0.866025
v -0.500000 2.196489 -0.866026
v -1.000000 2.196489 -0.000000
v -0.500000 2.196489 0.866025
v 0.500000 2.196489 0.866025
v 1.000000 2.196489 0.000000
v 2.343607 4.271760 -4.059253
v -2.343606 4.271760 -4.059253
v -4.687212 4.271760 -0.000001
v -2.343606 4.271760 4.059253
v 2.343606 4.271760 4.059253
v 4.687212 4.271760 0.000000
v 0.095971 2.591908 -0.166226
v -0.095971 2.591908 -0.166226
v -0.191941 2.591908 -0.000000
v -0.095971 2.591908 0.166226
v 0.095971 2.591908 0.166226
v 0.191941 2.591908 -0.000000
v 0.000000 2.591908 0.000000
v 2.172142 4.271760 -3.762266
v 4.344282 4.271760 0.000000
v 2.172141 4.271760 3.762266
v -2.172142 4.271760 3.762266
v -4.344282 4.271760 -0.000001
v -2.172141 4.271760 -3.762267
v -2.371073 2.067478 2.123153
v -2.108526 2.047368 2.380850
v -2.044591 2.271760 2.044591
v 2.044591 2.271760 2.044591
v 2.123153 2.067478 2.371073
v 2.371073 2.067478 2.123153
v -2.380850 2.047368 -2.108526
v -2.044591 2.271760 -2.044591
v -2.108526 2.047368 -2.380850
v 2.108526 2.047368 -2.380850
v 2.044591 2.271760 -2.044591
v 2.380850 2.047368 -2.108526
v -4.350748 -2.003938 4.078423
v -4.078423 -2.003938 4.350748
v 4.350748 -2.003938 4.078423
v 4.078423 -2.003938 4.350748
v -4.350748 -2.003938 -4.078423
v -4.078423 -2.003938 -4.350748
v 4.350748 -2.003938 -4.078423
v 4.078423 -2.003938 -4.350748
vt 0.369952 0.879061
vt 0.369952 0.888360
vt 0.369952 0.897659
vt 0.369953 0.906958
vt 0.369953 0.916257
vt 0.369953 0.925556
vt 0.369953 0.934855
vt 0.286261 0.879063
vt 0.286262 0.888362
vt 0.286262 0.897661
vt 0.286262 0.906960
vt 0.286262 0.916259
vt 0.286263 0.925558
vt 0.286263 0.934857
vt 0.302357 0.935611
vt 0.319336 0.906172
vt 0.302330 0.876747
vt 0.268345 0.876763
vt 0.251366 0.906202
vt 0.268372 0.935626
vt 0.285954 0.907314
vt 0.286629 0.906229
vt 0.286026 0.905101
vt 0.284749 0.905060
vt 0.284074 0.906145
vt 0.284676 0.907272
vt 0.285351 0.906187
vt 0.253777 0.906201
vt 0.269577 0.933538
vt 0.301150 0.933523
vt 0.316925 0.906172
vt 0.301125 0.878836
vt 0.269552 0.878850
vt 0.329547 0.916454
vt 0.328909 0.915816
vt 0.328906 0.896704
vt 0.329544 0.896066
vt 0.348656 0.896062
vt 0.349294 0.896701
vt 0.349297 0.915813
vt 0.348659 0.916451
vt 0.288785 0.916462
vt 0.289152 0.915442
vt 0.307502 0.915439
vt 0.307328 0.916458
vt 0.287063 0.915824
vt 0.287159 0.917575
vt 0.267745 0.917104
vt 0.267745 0.915827
vt 0.287155 0.897186
vt 0.289149 0.897093
vt 0.289218 0.896073
vt 0.307802 0.896070
vt 0.307498 0.897089
vt 0.287155 0.895493
vt 0.267741 0.896715
vt 0.267741 0.895439
vt 0.309251 0.916458
vt 0.309591 0.915236
vt 0.309587 0.896708
vt 0.309329 0.896070
vt 0.267737 0.876327
vt 0.287056 0.876908
vt 0.287066 0.936212
vt 0.267748 0.936216
vt 0.329544 0.896066
vt 0.329547 0.916454
vn 0.000000 -0.838483 -0.544928
vn 0.000000 -0.838483 -0.544928
vn 0.000000 -0.838483 -0.544928
vn 0.000000 -0.838483 -0.544928
vn -0.471922 -0.838482 -0.272464
vn -0.471922 -0.838482 -0.272464
vn -0.471922 -0.838482 -0.272464
vn -0.471922 -0.838482 -0.272464
vn -0.471922 -0.838482 0.272464
vn -0.471922 -0.838482 0.272464
vn -0.471922 -0.838482 0.272464
vn -0.471922 -0.838482 0.272464
vn 0.000000 -0.838483 0.544928
vn 0.000000 -0.838483 0.544928
vn 0.000000 -0.838483 0.544928
vn 0.000000 -0.838483 0.544928
vn 0.471922 -0.838482 0.272464
vn 0.471922 -0.838482 0.272464
vn 0.471922 -0.838482 0.272464
vn 0.471922 -0.838482 0.272464
vn 0.471922 -0.838482 -0.272464
vn 0.471922 -0.838482 -0.272464
vn 0.471922 -0.838482 -0.272464
vn 0.471922 -0.838482 -0.272464
vn 0.000000 1.000000 -0.000002
vn 0.000000 1.000000 -0.000002
vn 0.000000 1.000000 -0.000002
vn 0.000000 1.000000 -0.000002
vn 0.000000 1.000000 -0.000001
vn 0.000000 1.000000 -0.000001
vn 0.000000 1.000000 -0.000001
vn 0.000000 1.000000 -0.000001
vn 0.000000 1.000000 -0.000000
vn 0.000000 1.000000 -0.000000
vn 0.000000 1.000000 -0.000000
vn 0.000000 1.000000 -0.000000
vn 0.000000 1.000000 -0.000001
vn 0.000000 1.000000 -0.000001
vn 0.000000 1.000000 -0.000001
vn 0.000000 1.000000 -0.000001
vn 0.000000 1.000000 0.000001
vn 0.000000 1.000000 0.000001
vn 0.000000 1.000000 0.000001
vn 0.000000 1.000000 0.000001
vn 0.000000 1.000000 0.000000
vn 0.000000 1.000000 0.000000
vn 0.000000 1.000000 0.000000
vn 0.000000 1.000000 0.000000
vn 0.000000 1.000000 0.000000
vn 0.000000 1.000000 0.000000
vn 0.000000 1.000000 0.000000
vn 0.000000 1.000000 0.000000
vn 0.000000 1.000000 0.000000
vn 0.000000 1.000000 0.000000
vn 0.000000 1.000000 0.000002
vn 0.000000 1.000000 0.000002
vn 0.000000 1.000000 0.000002
vn 0.000000 1.000000 0.000000
vn 0.000000 1.000000 0.000000
vn 0.000000 1.000000 0.000000
vn 0.000000 1.000000 0.000000
vn 0.000000 1.000000 0.000000
vn 0.000000 1.000000 0.000000
vn 0.000000 1.000000 -0.000002
vn 0.000000 1.000000 -0.000002
vn 0.000000 1.000000 -0.000002
vn -0.366535 0.906019 0.211618
vn -0.366535 0.906019 0.211618
vn -0.366535 0.906019 0.211618
vn -0.366535 0.906019 0.211618
vn -0.366535 0.906019 -0.211619
vn -0.366535 0.906019 -0.211619
vn -0.366535 0.906019 -0.211619
vn -0.366535 0.906019 -0.211619
vn 0.000000 0.906019 -0.423237
vn 0.000000 0.906019 -0.423237
vn 0.000000 0.906019 -0.423237
vn 0.000000 0.906019 -0.423237
vn 0.366535 0.906019 -0.211618
vn 0.366535 0.906019 -0.211618
vn 0.366535 0.906019 -0.211618
vn 0.366535 0.906019 -0.211618
vn 0.366535 0.906019 0.211619
vn 0.366535 0.906019 0.211619
vn 0.366535 0.906019 0.211619
vn 0.366535 0.906019 0.211619
vn -0.000000 0.906019 0.423237
vn -0.000000 0.906019 0.423237
vn -0.000000 0.906019 0.423237
vn -0.000000 0.906019 0.423237
vn 0.000000 -1.000000 0.000000
vn 0.000000 -1.000000 0.000000
vn 0.000000 -1.000000 0.000000
vn 0.000000 -1.000000 0.000000
vn -0.543131 0.839647 -0.001391
vn -0.543131 0.839647 -0.001391
vn -0.543131 0.839647 -0.001391
vn -0.543131 0.839647 -0.001391
vn -0.569803 0.565292 0.596465
vn -0.569803 0.565292 0.596465
vn -0.569803 0.565292 0.596465
vn -0.569803 0.565292 0.596465
vn -0.001391 0.839647 0.543131
vn -0.001391 0.839647 0.543131
vn -0.001391 0.839647 0.543131
vn -0.001391 0.839647 0.543131
vn 0.543131 0.839647 -0.001391
vn 0.543131 0.839647 -0.001391
vn 0.543131 0.839647 -0.001391
vn 0.543131 0.839647 -0.001391
vn 0.583799 0.564231 0.583799
vn 0.583799 0.564231 0.583799
vn 0.583799 0.564231 0.583799
vn 0.583799 0.564231 0.583799
vn -0.582647 0.566609 -0.582647
vn -0.582647 0.566609 -0.582647
vn -0.582647 0.566609 -0.582647
vn -0.582647 0.566609 -0.582647
vn 0.000000 0.831800 -0.555075
vn 0.000000 0.831801 -0.555075
vn 0.000000 0.831801 -0.555075
vn 0.000000 0.831800 -0.555075
vn 0.582647 0.566609 -0.582647
vn 0.582647 0.566609 -0.582647
vn 0.582647 0.566609 -0.582647
vn 0.582647 0.566609 -0.582647
vn -0.000000 0.437285 0.899323
vn -0.000000 0.437285 0.899323
vn -0.000000 0.437285 0.899323
vn -0.000000 0.437285 0.899323
vn 0.000000 1.000000 0.000000
vn 0.000000 1.000000 0.000000
vn 0.000000 1.000000 0.000000
vn 0.000000 1.000000 0.000000
vn 0.000000 0.437285 -0.899323
vn 0.000000 0.437285 -0.899323
vn 0.000000 0.437285 -0.899323
vn 0.000000 0.437285 -0.899323
vn 0.899323 0.437285 -0.000000
vn 0.899323 0.437285 -0.000000
vn 0.899323 0.437285 -0.000000
vn 0.899323 0.437285 -0.000000
vn -0.899323 0.437285 -0.000000
vn -0.899323 0.437285 -0.000000
vn -0.899323 0.437285 -0.000000
vn -0.899323 0.437285 -0.000000
vn -0.389285 0.798646 0.458935
vn -0.389285 0.798646 0.458935
vn -0.389285 0.798646 0.458935
vn 0.410604 0.814130 0.410605
vn 0.410604 0.814130 0.410605
vn 0.410604 0.814130 0.410605
vn -0.439344 0.783552 -0.439344
vn -0.439344 0.783552 -0.439344
vn -0.439344 0.783552 -0.439344
vn 0.439344 0.783552 -0.439344
vn 0.439344 0.783552 -0.439344
vn 0.439344 0.783552 -0.439344
vn 0.000000 -1.000000 0.000000
vn 0.000000 -1.000000 0.000000
vn 0.000000 -1.000000 0.000000
vn 0.000000 -1.000000 0.000000
s off
g Brazier
usemtl lambert2SG
f 1/1/1 2/2/2 8/9/3 7/8/4
f 2/2/5 3/3/6 9/10/7 8/9/8
f 3/3/9 4/4/10 10/11/11 9/10/12
f 4/4/13 5/5/14 11/12/15 10/11/16
f 5/5/17 6/6/18 12/13/19 11/12/20
f 6/6/21 1/7/22 7/14/23 12/13/24
f 7/19/25 8/18/26 25/33/27 20/28/28
f 8/18/29 9/17/30 24/32/31 25/33/32
f 9/17/33 10/16/34 23/31/35 24/32/36
f 10/16/37 11/15/38 22/30/39 23/31/40
f 11/15/41 12/20/42 21/29/43 22/30/44
f 12/20/45 7/19/46 20/28/47 21/29/48
f 13/25/49 14/24/50 19/27/51
f 14/24/52 15/23/53 19/27/54
f 15/23/55 16/22/56 19/27/57
f 16/22/58 17/21/59 19/27/60
f 17/21/61 18/26/62 19/27/63
f 18/26/64 13/25/65 19/27/66
f 21/29/67 20/28/68 13/25/69 18/26/70
f 22/30/71 21/29/72 18/26/73 17/21/74
f 23/31/75 22/30/76 17/21/77 16/22/78
f 24/32/79 23/31/80 16/22/81 15/23/82
f 25/33/83 24/32/84 15/23/85 14/24/86
f 20/28/87 25/33/88 14/24/89 13/25/90
s 1
f 41/39/91 45/36/92 44/66/93 40/38/94
s off
f 26/42/95 28/43/96 33/44/97 32/45/98
f 27/46/99 26/47/100 38/48/101 39/49/102
f 28/43/103 27/46/104 30/50/105 29/51/106
f 29/51/107 31/52/108 37/53/109 36/54/110
f 31/55/111 30/50/112 41/56/113 40/57/114
f 32/58/115 34/59/116 43/35/117 42/67/118
f 34/59/119 33/44/120 36/54/121 35/60/122
f 35/60/123 37/61/124 44/37/125 45/36/126
f 27/46/127 39/49/128 41/56/129 30/50/130
f 28/43/131 29/51/132 36/54/133 33/44/134
f 34/59/135 35/60/136 45/36/137 43/35/138
f 31/55/139 40/57/140 44/62/141 37/63/142
f 32/64/143 42/65/144 38/48/145 26/47/146
f 26/47/147 27/46/148 28/43/149
f 29/51/150 30/50/151 31/55/152
f 32/45/153 33/44/154 34/59/155
f 35/60/156 36/54/157 37/53/158
s 1
f 39/40/159 43/35/160 45/36/92 41/39/91
f 42/34/161 43/35/160 39/40/159 38/41/162
