# This file uses centimeters as units for non-parametric coordinates.

mtllib SoundWave.mtl
g default
v -0.664894 1.090347 0.497002
v -0.165888 1.130362 0.587613
v 0.165888 1.130362 0.587613
v 0.664894 1.090347 0.497002
v -0.916478 1.076603 0.335781
v -0.329680 1.141605 0.358813
v 0.329680 1.141605 0.358813
v 0.916478 1.076603 0.335781
v -1.358687 1.018670 -0.012142
v -0.510664 1.135704 0.136792
v 0.510664 1.135704 0.136792
v 1.358687 1.018670 -0.012142
v -1.634588 0.998051 -0.389079
v -0.754161 1.095938 -0.053038
v 0.754161 1.095938 -0.053038
v 1.634588 0.998051 -0.389079
v 0.000000 1.134203 0.616743
v 0.000000 1.177595 0.377741
v 0.000000 1.187877 0.171751
v 0.000000 1.177748 0.034778
v 0.362925 1.111444 0.558797
v 0.642004 1.110436 0.330966
v 0.958815 1.066998 0.069620
v 1.323904 1.017082 -0.177150
v -0.362925 1.111444 0.558797
v -0.642004 1.110436 0.330966
v -0.958815 1.066998 0.069620
v -1.323904 1.017082 -0.177150
vt 0.343675 0.467304
vt 0.462568 0.445223
vt 0.541674 0.444906
vt 0.660740 0.466034
vt 0.283843 0.505984
vt 0.418841 0.488085
vt 0.585743 0.487416
vt 0.720880 0.504234
vt 0.178738 0.589363
vt 0.351537 0.540528
vt 0.653465 0.539319
vt 0.826649 0.586769
vt 0.113314 0.679501
vt 0.322916 0.598537
vt 0.682549 0.597097
vt 0.892793 0.676379
vt 0.502093 0.438119
vt 0.502292 0.487751
vt 0.502472 0.532595
vt 0.502649 0.576878
vt 0.588682 0.451589
vt 0.653311 0.495825
vt 0.740057 0.563044
vt 0.818513 0.626145
vt 0.415615 0.452282
vt 0.351342 0.497035
vt 0.265137 0.564946
vt 0.187189 0.628673
vn -0.104638 0.988928 0.105228
vn -0.110356 0.985824 0.126386
vn -0.122207 0.990932 0.055847
vn -0.117436 0.993077 -0.002608
vn 0.000000 0.995608 0.093623
vn 0.000000 0.988933 0.148364
vn 0.097795 0.984813 0.143456
vn 0.111123 0.990238 0.084141
vn 0.110356 0.985824 0.126386
vn 0.122207 0.990932 0.055847
vn -0.128663 0.991659 -0.007616
vn -0.090776 0.995558 -0.024973
vn -0.000000 0.999931 -0.011794
vn 0.115461 0.993199 -0.014988
vn 0.128663 0.991659 -0.007616
vn -0.091387 0.995525 -0.024028
vn -0.083223 0.996162 -0.027126
vn -0.115461 0.993199 -0.014988
vn -0.000000 0.996855 -0.079249
vn -0.134130 0.990789 -0.018624
vn 0.091387 0.995525 -0.024028
vn 0.134130 0.990789 -0.018624
vn -0.111123 0.990238 0.084141
vn -0.097795 0.984813 0.143456
vn 0.104638 0.988928 0.105228
vn 0.117436 0.993077 -0.002608
vn 0.090776 0.995558 -0.024973
vn 0.083223 0.996162 -0.027126
s 1
g SoundWaveMesh
usemtl initialShadingGroup
f 1/1/1 25/25/2 26/26/3 5/5/4
f 18/18/5 17/17/6 3/3/7 7/7/8
f 3/3/7 21/21/9 22/22/10 7/7/8
f 5/5/4 26/26/3 27/27/11 9/9/12
f 19/19/13 18/18/5 7/7/8 11/11/14
f 7/7/8 22/22/10 23/23/15 11/11/14
f 9/9/12 27/27/11 28/28/16 13/13/17
f 10/10/18 19/19/13 20/20/19 14/14/20
f 11/11/14 23/23/15 24/24/21 15/15/22
f 20/20/19 19/19/13 11/11/14 15/15/22
f 6/6/23 18/18/5 19/19/13 10/10/18
f 2/2/24 17/17/6 18/18/5 6/6/23
f 22/22/10 21/21/9 4/4/25 8/8/26
f 23/23/15 22/22/10 8/8/26 12/12/27
f 24/24/21 23/23/15 12/12/27 16/16/28
f 26/26/3 25/25/2 2/2/24 6/6/23
f 27/27/11 26/26/3 6/6/23 10/10/18
f 28/28/16 27/27/11 10/10/18 14/14/20
