# This file uses centimeters as units for non-parametric coordinates.

mtllib DropMesh.mtl
v 0.250000 -0.181636 0.951057
v 0.095491 -0.293893 0.951056
v -0.095492 -0.293893 0.951057
v -0.250000 -0.181636 0.951057
v -0.309017 0.000000 0.951057
v -0.250000 0.181636 0.951057
v -0.095491 0.293893 0.951056
v 0.095492 0.293893 0.951056
v 0.250000 0.181636 0.951057
v 0.309017 0.000000 0.951057
v 0.475528 -0.345492 0.809017
v 0.181636 -0.559017 0.809017
v -0.181636 -0.559017 0.809017
v -0.475528 -0.345491 0.809017
v -0.587785 0.000000 0.809017
v -0.475528 0.345492 0.809017
v -0.181636 0.559017 0.809017
v 0.181636 0.559017 0.809017
v 0.475528 0.345491 0.809017
v 0.587785 0.000000 0.809017
v 0.654509 -0.475528 0.587785
v 0.250000 -0.769421 0.587785
v -0.250000 -0.769421 0.587785
v -0.654509 -0.475528 0.587785
v -0.809017 0.000000 0.587785
v -0.654509 0.475528 0.587785
v -0.250000 0.769421 0.587785
v 0.250000 0.769421 0.587785
v 0.654509 0.475528 0.587785
v 0.809017 0.000000 0.587785
v 0.769421 -0.559017 0.309017
v 0.293893 -0.904509 0.309017
v -0.293893 -0.904509 0.309017
v -0.769421 -0.559017 0.309017
v -0.951057 0.000000 0.309017
v -0.769421 0.559017 0.309017
v -0.293893 0.904509 0.309017
v 0.293893 0.904509 0.309017
v 0.769421 0.559017 0.309017
v 0.951057 0.000000 0.309017
v 0.809017 -0.587785 0.000000
v 0.309017 -0.951057 0.000000
v -0.309017 -0.951057 0.000000
v -0.809017 -0.587785 0.000000
v -1.000000 0.000000 0.000000
v -0.809017 0.587785 0.000000
v -0.309017 0.951057 0.000000
v 0.309017 0.951057 0.000000
v 0.809017 0.587785 0.000000
v 1.000000 0.000000 0.000000
v 0.769421 -0.559017 -0.309017
v 0.293893 -0.904509 -0.309017
v -0.293893 -0.904509 -0.309017
v -0.769421 -0.559017 -0.309017
v -0.951057 0.000000 -0.309017
v -0.769421 0.559017 -0.309017
v -0.293893 0.904509 -0.309017
v 0.293893 0.904508 -0.309017
v 0.769421 0.559017 -0.309017
v 0.951057 0.000000 -0.309017
v 0.654508 -0.475528 -0.587785
v 0.250000 -0.769421 -0.587785
v -0.250000 -0.769421 -0.587785
v -0.654509 -0.475528 -0.587785
v -0.809017 0.000000 -0.587785
v -0.654508 0.475528 -0.587785
v -0.250000 0.769421 -0.587785
v 0.250000 0.769421 -0.587785
v 0.654508 0.475528 -0.587785
v 0.809017 0.000000 -0.587785
v 0.454594 -0.330282 -0.952116
v 0.173639 -0.534407 -0.952116
v -0.173639 -0.534407 -0.952116
v -0.454594 -0.330282 -0.952116
v -0.561909 0.000000 -0.952116
v -0.454594 0.330282 -0.952116
v -0.173639 0.534407 -0.952116
v 0.173639 0.534407 -0.952116
v 0.454594 0.330282 -0.952116
v 0.561909 0.000000 -0.952116
v 0.000000 0.000000 1.000000
v 0.000000 0.000000 -1.975932
vt 0.000000 0.100000
vt 0.100000 0.100000
vt 0.200000 0.100000
vt 0.300000 0.100000
vt 0.400000 0.100000
vt 0.500000 0.100000
vt 0.600000 0.100000
vt 0.700000 0.100000
vt 0.800000 0.100000
vt 0.900000 0.100000
vt 1.000000 0.100000
vt 0.000000 0.200000
vt 0.100000 0.200000
vt 0.200000 0.200000
vt 0.300000 0.200000
vt 0.400000 0.200000
vt 0.500000 0.200000
vt 0.600000 0.200000
vt 0.700000 0.200000
vt 0.800000 0.200000
vt 0.900000 0.200000
vt 1.000000 0.200000
vt 0.000000 0.300000
vt 0.100000 0.300000
vt 0.200000 0.300000
vt 0.300000 0.300000
vt 0.400000 0.300000
vt 0.500000 0.300000
vt 0.600000 0.300000
vt 0.700000 0.300000
vt 0.800000 0.300000
vt 0.900000 0.300000
vt 1.000000 0.300000
vt 0.000000 0.400000
vt 0.100000 0.400000
vt 0.200000 0.400000
vt 0.300000 0.400000
vt 0.400000 0.400000
vt 0.500000 0.400000
vt 0.600000 0.400000
vt 0.700000 0.400000
vt 0.800000 0.400000
vt 0.900000 0.400000
vt 1.000000 0.400000
vt 0.000000 0.500000
vt 0.100000 0.500000
vt 0.200000 0.500000
vt 0.300000 0.500000
vt 0.400000 0.500000
vt 0.500000 0.500000
vt 0.600000 0.500000
vt 0.700000 0.500000
vt 0.800000 0.500000
vt 0.900000 0.500000
vt 1.000000 0.500000
vt 0.000000 0.600000
vt 0.100000 0.600000
vt 0.200000 0.600000
vt 0.300000 0.600000
vt 0.400000 0.600000
vt 0.500000 0.600000
vt 0.600000 0.600000
vt 0.700000 0.600000
vt 0.800000 0.600000
vt 0.900000 0.600000
vt 1.000000 0.600000
vt 0.000000 0.700000
vt 0.100000 0.700000
vt 0.200000 0.700000
vt 0.300000 0.700000
vt 0.400000 0.700000
vt 0.500000 0.700000
vt 0.600000 0.700000
vt 0.700000 0.700000
vt 0.800000 0.700000
vt 0.900000 0.700000
vt 1.000000 0.700000
vt 0.000000 0.800000
vt 0.100000 0.800000
vt 0.200000 0.800000
vt 0.300000 0.800000
vt 0.400000 0.800000
vt 0.500000 0.800000
vt 0.600000 0.800000
vt 0.700000 0.800000
vt 0.800000 0.800000
vt 0.900000 0.800000
vt 1.000000 0.800000
vt 0.050000 0.000000
vt 0.150000 0.000000
vt 0.250000 0.000000
vt 0.350000 0.000000
vt 0.450000 0.000000
vt 0.550000 0.000000
vt 0.650000 0.000000
vt 0.750000 0.000000
vt 0.850000 0.000000
vt 0.950000 0.000000
vt 0.050000 1.000000
vt 0.150000 1.000000
vt 0.250000 1.000000
vt 0.350000 1.000000
vt 0.450000 1.000000
vt 0.550000 1.000000
vt 0.650000 1.000000
vt 0.750000 1.000000
vt 0.850000 1.000000
vt 0.950000 1.000000
vn 0.323956 -0.235368 0.916326
vn 0.123740 -0.380834 0.916326
vn 0.195836 -0.602721 0.773548
vn 0.512705 -0.372502 0.773548
vn -0.123740 -0.380834 0.916326
vn -0.195836 -0.602721 0.773548
vn -0.323957 -0.235368 0.916326
vn -0.512705 -0.372502 0.773548
vn -0.400432 0.000000 0.916326
vn -0.633738 0.000000 0.773548
vn -0.323956 0.235368 0.916326
vn -0.512705 0.372502 0.773548
vn -0.123740 0.380834 0.916326
vn -0.195836 0.602721 0.773548
vn 0.123740 0.380834 0.916326
vn 0.195836 0.602721 0.773548
vn 0.323956 0.235368 0.916326
vn 0.512705 0.372502 0.773548
vn 0.400432 0.000000 0.916326
vn 0.633738 0.000000 0.773548
vn 0.256443 -0.789250 0.557962
vn 0.671376 -0.487783 0.557962
vn -0.256443 -0.789250 0.557962
vn -0.671376 -0.487783 0.557962
vn -0.829866 0.000000 0.557962
vn -0.671376 0.487783 0.557962
vn -0.256443 0.789250 0.557962
vn 0.256443 0.789250 0.557962
vn 0.671376 0.487783 0.557962
vn 0.829866 0.000000 0.557962
vn 0.295556 -0.909628 0.291930
vn 0.773776 -0.562181 0.291930
vn -0.295556 -0.909628 0.291930
vn -0.773776 -0.562181 0.291930
vn -0.956440 0.000000 0.291930
vn -0.773776 0.562181 0.291930
vn -0.295556 0.909628 0.291930
vn 0.295556 0.909628 0.291930
vn 0.773776 0.562181 0.291930
vn 0.956440 0.000000 0.291930
vn 0.309017 -0.951057 0.000000
vn 0.809017 -0.587785 0.000000
vn -0.309017 -0.951057 0.000000
vn -0.809017 -0.587785 0.000000
vn -1.000000 0.000000 0.000000
vn -0.809017 0.587785 0.000000
vn -0.309017 0.951057 -0.000000
vn 0.309017 0.951056 -0.000000
vn 0.809017 0.587785 -0.000000
vn 1.000000 0.000000 0.000000
vn 0.295556 -0.909628 -0.291930
vn 0.773776 -0.562181 -0.291930
vn -0.295556 -0.909628 -0.291930
vn -0.773776 -0.562181 -0.291930
vn -0.956440 0.000000 -0.291930
vn -0.773776 0.562181 -0.291930
vn -0.295556 0.909628 -0.291930
vn 0.295556 0.909628 -0.291930
vn 0.773776 0.562181 -0.291930
vn 0.956440 0.000000 -0.291930
vn 0.266603 -0.820520 -0.505638
vn 0.697976 -0.507109 -0.505638
vn -0.266603 -0.820520 -0.505638
vn -0.697976 -0.507109 -0.505638
vn -0.862746 0.000000 -0.505638
vn -0.697976 0.507109 -0.505638
vn -0.266603 0.820520 -0.505638
vn 0.266603 0.820520 -0.505638
vn 0.697976 0.507109 -0.505638
vn 0.862746 -0.000000 -0.505638
vn 0.263151 -0.809895 -0.524235
vn 0.688938 -0.500543 -0.524235
vn -0.263151 -0.809895 -0.524235
vn -0.688938 -0.500543 -0.524235
vn -0.851574 0.000000 -0.524235
vn -0.688938 0.500543 -0.524235
vn -0.263151 0.809895 -0.524235
vn 0.263151 0.809895 -0.524235
vn 0.688938 0.500543 -0.524235
vn 0.851574 0.000000 -0.524234
vn 0.000000 0.000000 1.000000
vn -0.000000 0.000000 -1.000000
s 1
usemtl initialShadingGroup
f 1/1/1 2/2/2 12/13/3 11/12/4
f 2/2/2 3/3/5 13/14/6 12/13/3
f 3/3/5 4/4/7 14/15/8 13/14/6
f 4/4/7 5/5/9 15/16/10 14/15/8
f 5/5/9 6/6/11 16/17/12 15/16/10
f 6/6/11 7/7/13 17/18/14 16/17/12
f 7/7/13 8/8/15 18/19/16 17/18/14
f 8/8/15 9/9/17 19/20/18 18/19/16
f 9/9/17 10/10/19 20/21/20 19/20/18
f 10/10/19 1/11/1 11/22/4 20/21/20
f 11/12/4 12/13/3 22/24/21 21/23/22
f 12/13/3 13/14/6 23/25/23 22/24/21
f 13/14/6 14/15/8 24/26/24 23/25/23
f 14/15/8 15/16/10 25/27/25 24/26/24
f 15/16/10 16/17/12 26/28/26 25/27/25
f 16/17/12 17/18/14 27/29/27 26/28/26
f 17/18/14 18/19/16 28/30/28 27/29/27
f 18/19/16 19/20/18 29/31/29 28/30/28
f 19/20/18 20/21/20 30/32/30 29/31/29
f 20/21/20 11/22/4 21/33/22 30/32/30
f 21/23/22 22/24/21 32/35/31 31/34/32
f 22/24/21 23/25/23 33/36/33 32/35/31
f 23/25/23 24/26/24 34/37/34 33/36/33
f 24/26/24 25/27/25 35/38/35 34/37/34
f 25/27/25 26/28/26 36/39/36 35/38/35
f 26/28/26 27/29/27 37/40/37 36/39/36
f 27/29/27 28/30/28 38/41/38 37/40/37
f 28/30/28 29/31/29 39/42/39 38/41/38
f 29/31/29 30/32/30 40/43/40 39/42/39
f 30/32/30 21/33/22 31/44/32 40/43/40
f 31/34/32 32/35/31 42/46/41 41/45/42
f 32/35/31 33/36/33 43/47/43 42/46/41
f 33/36/33 34/37/34 44/48/44 43/47/43
f 34/37/34 35/38/35 45/49/45 44/48/44
f 35/38/35 36/39/36 46/50/46 45/49/45
f 36/39/36 37/40/37 47/51/47 46/50/46
f 37/40/37 38/41/38 48/52/48 47/51/47
f 38/41/38 39/42/39 49/53/49 48/52/48
f 39/42/39 40/43/40 50/54/50 49/53/49
f 40/43/40 31/44/32 41/55/42 50/54/50
f 41/45/42 42/46/41 52/57/51 51/56/52
f 42/46/41 43/47/43 53/58/53 52/57/51
f 43/47/43 44/48/44 54/59/54 53/58/53
f 44/48/44 45/49/45 55/60/55 54/59/54
f 45/49/45 46/50/46 56/61/56 55/60/55
f 46/50/46 47/51/47 57/62/57 56/61/56
f 47/51/47 48/52/48 58/63/58 57/62/57
f 48/52/48 49/53/49 59/64/59 58/63/58
f 49/53/49 50/54/50 60/65/60 59/64/59
f 50/54/50 41/55/42 51/66/52 60/65/60
f 51/56/52 52/57/51 62/68/61 61/67/62
f 52/57/51 53/58/53 63/69/63 62/68/61
f 53/58/53 54/59/54 64/70/64 63/69/63
f 54/59/54 55/60/55 65/71/65 64/70/64
f 55/60/55 56/61/56 66/72/66 65/71/65
f 56/61/56 57/62/57 67/73/67 66/72/66
f 57/62/57 58/63/58 68/74/68 67/73/67
f 58/63/58 59/64/59 69/75/69 68/74/68
f 59/64/59 60/65/60 70/76/70 69/75/69
f 60/65/60 51/66/52 61/77/62 70/76/70
f 61/67/62 62/68/61 72/79/71 71/78/72
f 62/68/61 63/69/63 73/80/73 72/79/71
f 63/69/63 64/70/64 74/81/74 73/80/73
f 64/70/64 65/71/65 75/82/75 74/81/74
f 65/71/65 66/72/66 76/83/76 75/82/75
f 66/72/66 67/73/67 77/84/77 76/83/76
f 67/73/67 68/74/68 78/85/78 77/84/77
f 68/74/68 69/75/69 79/86/79 78/85/78
f 69/75/69 70/76/70 80/87/80 79/86/79
f 70/76/70 61/77/62 71/88/72 80/87/80
f 2/2/2 1/1/1 81/89/81
f 3/3/5 2/2/2 81/90/81
f 4/4/7 3/3/5 81/91/81
f 5/5/9 4/4/7 81/92/81
f 6/6/11 5/5/9 81/93/81
f 7/7/13 6/6/11 81/94/81
f 8/8/15 7/7/13 81/95/81
f 9/9/17 8/8/15 81/96/81
f 10/10/19 9/9/17 81/97/81
f 1/11/1 10/10/19 81/98/81
f 72/79/71 82/99/82 71/78/72
f 73/80/73 82/100/82 72/79/71
f 74/81/74 82/101/82 73/80/73
f 75/82/75 82/102/82 74/81/74
f 76/83/76 82/103/82 75/82/75
f 77/84/77 82/104/82 76/83/76
f 78/85/78 82/105/82 77/84/77
f 79/86/79 82/106/82 78/85/78
f 80/87/80 82/107/82 79/86/79
f 71/88/72 82/108/82 80/87/80
